# xmcd
#
# Track frame offsets: 
#        182
#        18067
#        39060
#        58212
#        78555
#        96782
#        111772
#        131282
#        148302
#        164082
#        185167
#        204182
#
# Disc length: 2877 seconds
#
# Revision: 3
# Processed by: cddbd v1.5.2PL0 Copyright (c) Steve Scherf et al.
# Submitted via: ExactAudioCopyFreeDBPlugin 1.0
#
DISCID=a10b3b0c
DTITLE=Steinbäcker - Einmal im Leb'n {Polydor,843016-2}
DYEAR=1990
DGENRE=Austriapop
TTITLE0=Die Sunn über'n Meer
TTITLE1=Net gebor'n für die Welt
TTITLE2=Die Zeit
TTITLE3=Einmal im Leb'n
TTITLE4=Du gehst jetzt nach Amerika
TTITLE5=Kein Traum mehr
TTITLE6=I laß' mir die Kraft net zerbrechen
TTITLE7=Irgendwie bei mir
TTITLE8=Soll i
TTITLE9=Blasser Engel
TTITLE10=Liege is es net
TTITLE11=Bevor i geh
EXTD=
EXTT0=
EXTT1=
EXTT2=
EXTT3=
EXTT4=
EXTT5=
EXTT6=
EXTT7=
EXTT8=
EXTT9=
EXTT10=
EXTT11=
PLAYORDER=
